<svg 
  width="500" 
  height="500" 
  viewBox="0 0 600 600" 
  fill="none" 
  xmlns="http://www.w3.org/2000/svg" 
  class="hero-svg w-full max-w-md lg:max-w-lg"
>
  <!-- SVG线条和形状 -->
  <defs>
    <linearGradient id="gradient1" x1="0%" y1="0%" x2="100%" y2="100%">
      <stop offset="0%" stop-color="#6366f1" class="dark-theme-color" />
      <stop offset="100%" stop-color="#14b8a6" class="dark-theme-color" />
    </linearGradient>
    <filter id="glow" x="-20%" y="-20%" width="140%" height="140%">
      <feGaussianBlur stdDeviation="10" result="blur" />
      <feComposite in="SourceGraphic" in2="blur" operator="over" />
    </filter>
  </defs>

  <!-- 中心图形 -->
  <g class="central-elements" filter="url(#glow)">
    <circle cx="300" cy="300" r="60" fill="url(#gradient1)" opacity="0.9" />
    <circle cx="300" cy="300" r="100" stroke="url(#gradient1)" stroke-width="4" stroke-dasharray="628" stroke-dashoffset="628" opacity="0.7" />
    <circle cx="300" cy="300" r="140" stroke="url(#gradient1)" stroke-width="3" stroke-dasharray="879" stroke-dashoffset="879" opacity="0.5" />
    <circle cx="300" cy="300" r="180" stroke="url(#gradient1)" stroke-width="2" stroke-dasharray="1130" stroke-dashoffset="1130" opacity="0.3" />
  </g>

  <!-- 浮动元素 -->
  <g class="floating-elements">
    <!-- 组件图标 -->
    <rect x="150" y="140" width="50" height="50" rx="10" fill="url(#gradient1)" opacity="0.8" class="animate-float" />
    <rect x="400" y="140" width="50" height="50" rx="25" fill="url(#gradient1)" opacity="0.8" class="animate-float-delay-1" />
    <rect x="150" y="400" width="50" height="50" rx="10" fill="url(#gradient1)" opacity="0.8" class="animate-float-delay-2" />
    <rect x="400" y="400" width="50" height="50" rx="25" fill="url(#gradient1)" opacity="0.8" class="animate-float-delay-3" />

    <!-- 连接线 -->
    <path d="M300 240 L300 360" stroke="url(#gradient1)" stroke-width="3" stroke-dasharray="120" stroke-dashoffset="120" opacity="0.6" />
    <path d="M240 300 L360 300" stroke="url(#gradient1)" stroke-width="3" stroke-dasharray="120" stroke-dashoffset="120" opacity="0.6" />
    <path d="M200 200 L400 400" stroke="url(#gradient1)" stroke-width="2" stroke-dasharray="283" stroke-dashoffset="283" opacity="0.5" />
    <path d="M400 200 L200 400" stroke="url(#gradient1)" stroke-width="2" stroke-dasharray="283" stroke-dashoffset="283" opacity="0.5" />

    <!-- 额外装饰元素 -->
    <circle cx="200" cy="200" r="15" fill="url(#gradient1)" opacity="0.9" class="animate-pulse" />
    <circle cx="400" cy="200" r="15" fill="url(#gradient1)" opacity="0.9" class="animate-pulse-delay-1" />
    <circle cx="200" cy="400" r="15" fill="url(#gradient1)" opacity="0.9" class="animate-pulse-delay-2" />
    <circle cx="400" cy="400" r="15" fill="url(#gradient1)" opacity="0.9" class="animate-pulse-delay-3" />
  </g>

  <!-- 装饰点 -->
  <g class="decoration-dots">
    <circle cx="300" cy="80" r="4" fill="url(#gradient1)" opacity="0.6" class="animate-pulse" />
    <circle cx="300" cy="520" r="4" fill="url(#gradient1)" opacity="0.6" class="animate-pulse" />
    <circle cx="80" cy="300" r="4" fill="url(#gradient1)" opacity="0.6" class="animate-pulse" />
    <circle cx="520" cy="300" r="4" fill="url(#gradient1)" opacity="0.6" class="animate-pulse" />
    
    <circle cx="345" cy="90" r="4" fill="url(#gradient1)" opacity="0.6" class="animate-pulse" />
    <circle cx="390" cy="120" r="4" fill="url(#gradient1)" opacity="0.6" class="animate-pulse" />
    <circle cx="420" cy="165" r="4" fill="url(#gradient1)" opacity="0.6" class="animate-pulse" />
    <circle cx="450" cy="210" r="4" fill="url(#gradient1)" opacity="0.6" class="animate-pulse" />
    <circle cx="480" cy="255" r="4" fill="url(#gradient1)" opacity="0.6" class="animate-pulse" />
    <circle cx="510" cy="345" r="4" fill="url(#gradient1)" opacity="0.6" class="animate-pulse" />
    <circle cx="480" cy="390" r="4" fill="url(#gradient1)" opacity="0.6" class="animate-pulse" />
    <circle cx="450" cy="435" r="4" fill="url(#gradient1)" opacity="0.6" class="animate-pulse" />
    <circle cx="420" cy="480" r="4" fill="url(#gradient1)" opacity="0.6" class="animate-pulse" />
    <circle cx="345" cy="510" r="4" fill="url(#gradient1)" opacity="0.6" class="animate-pulse" />
    
    <circle cx="255" cy="90" r="4" fill="url(#gradient1)" opacity="0.6" class="animate-pulse" />
    <circle cx="210" cy="120" r="4" fill="url(#gradient1)" opacity="0.6" class="animate-pulse" />
    <circle cx="180" cy="165" r="4" fill="url(#gradient1)" opacity="0.6" class="animate-pulse" />
    <circle cx="150" cy="210" r="4" fill="url(#gradient1)" opacity="0.6" class="animate-pulse" />
    <circle cx="120" cy="255" r="4" fill="url(#gradient1)" opacity="0.6" class="animate-pulse" />
    <circle cx="90" cy="345" r="4" fill="url(#gradient1)" opacity="0.6" class="animate-pulse" />
    <circle cx="120" cy="390" r="4" fill="url(#gradient1)" opacity="0.6" class="animate-pulse" />
    <circle cx="150" cy="435" r="4" fill="url(#gradient1)" opacity="0.6" class="animate-pulse" />
    <circle cx="180" cy="480" r="4" fill="url(#gradient1)" opacity="0.6" class="animate-pulse" />
    <circle cx="255" cy="510" r="4" fill="url(#gradient1)" opacity="0.6" class="animate-pulse" />
  </g>
</svg>