<svg width="32" height="32" viewBox="0 0 32 32" fill="none" xmlns="http://www.w3.org/2000/svg">
  <defs>
    <filter id="cyberpunkGlow" x="-50%" y="-50%" width="200%" height="200%"><feFlood flood-color="#ff00ff" flood-opacity="0.6" result="pinkGlow"/>
      <feComposite in="pinkGlow" operator="in" in2="SourceGraphic"/>
      <feGaussianBlur stdDeviation="1.5" result="blur1"/>
      <feFlood flood-color="#00ffff" flood-opacity="0.6" result="cyanGlow"/>
      <feComposite in="cyanGlow" operator="in" in2="SourceGraphic"/>
      <feGaussianBlur stdDeviation="1.2" result="blur2"/><feMerge>
        <feMergeNode in="blur1"/>
        <feMergeNode in="blur2"/>
        <feMergeNode in="SourceGraphic"/></feMerge>
    </filter>
    <filter id="energyPulse" x="-30%" y="-30%" width="160%" height="160%"><feGaussianBlur in="SourceGraphic" stdDeviation="0.5" result="blur"/>
      <feColorMatrix in="blur" type="matrix" values="1 0 0 0 0  0 10 0 0  00 1 0 00 0 0 18 -7" result="glow"/>
      <feBlend in="SourceGraphic" in2="glow" mode="screen"/></filter>
    <linearGradient id="hairGradient" x1="0%" y1="0%" x2="100%" y2="100%">
      <stop offset="0%" stop-color="#6e00ff"/>
      <stop offset="50%" stop-color="#4F46E5"/>
      <stop offset="100%" stop-color="#2b0a60"/>
    </linearGradient>
    <linearGradient id="holoGradient" x1="0%" y1="0%" x2="100%" y2="100%">
      <stop offset="0%" stop-color="#00ffff" stop-opacity="0.8"/><stop offset="50%" stop-color="#ff00ff" stop-opacity="0.6"/>
      <stop offset="100%" stop-color="#00ccff" stop-opacity="0.8"/>
    </linearGradient>
    <radialGradient id="eyeGradient" cx="50%" cy="50%" r="50%" fx="50%" fy="50%">
      <stop offset="0%" stop-color="#00ffff"/>
      <stop offset="80%" stop-color="#4F46E5"/><stop offset="100%" stop-color="#2b0a60"/>
    </radialGradient>
  </defs>
  <circle cx="16" cy="16" r="15" stroke="url(#holoGradient)" stroke-width="0.5" filter="url(#cyberpunkGlow)" opacity="0.4"/><circle cx="16" cy="16" r="14" stroke="#ff00ff" stroke-width="0.2" stroke-dasharray="1 1" opacity="0.3"/>
  <path d="M16 26c5.5 0 10-4.5 10-10 0-5-4-9-8-9.8C13.5 5.5 9.5 6 7 9c-2.5 3-2 8.5 0 11.5 2 3 5 5.5 9 5.5z" fill="#2d1b4e" filter="url(#energyPulse)"/>

  <path d="M25.5 14c0-4-3-7.5-7-8.5-3.5-1-7.5-0.2-10 2.5-1.5 1.8-1.8 4-1.5 6 0.3-1.2 1-2.32-3 0.5-0.5 1.2-0.8 2-1 0 0-0.5 1.5-0.3 2.5 0.2 1 0.8 2 1.8 2.5-0.50.5-0.8 1.2-1 2 1-0.2 2-0.5 2.5-1.5 0.51 1.5 1.5 2.5 1.5 1 0 2-0.5 2.5-1.5 0.5 1 1.5 1.5 2.5 1.5 1.8 0 3.5-1.2 4-3z" fill="url(#hairGradient)" filter="url(#cyberpunkGlow)"/>
  

  <path d="M25 13c1-0.5 2-0.2 2.5 0.5 0.5 0.7 0.5 1.8 0 2.5-0.5 0.7-1.5 1-2.5 0.5" stroke="#00ffff" stroke-width="0.3" filter="url(#cyberpunkGlow)"/>
  <path d="M7 13c-1-0.5-2-0.2-2.5 0.5-0.5 0.7-0.51.8 0 2.5 0.5 0.7 1.5 1 2.5 0.5" stroke="#00ffff" stroke-width="0.3" filter="url(#cyberpunkGlow)"/>

  <path d="M16 19c-2 0-3.5-1-4-2.5 1 0.5 2.5 0.8 4 0.8 1.5 0 3-0.3 4-0.8-0.5 1.5-2 2.5-4 2.5z" fill="#2b0a60"/>
  

  <circle cx="12" cy="15" r="1.5" fill="url(#eyeGradient)" filter="url(#cyberpunkGlow)"/><circle cx="12" cy="15" r="0.6" fill="#ffffff"/>
  <circle cx="20" cy="15" r="1.5" fill="url(#eyeGradient)" filter="url(#cyberpunkGlow)"/><circle cx="20" cy="15" r="0.6" fill="#ffffff"/><!-- 赛博线路 --><path d="M25 14.5c1.5 0 3 0.5 4 1.5M7 14.5c-1.5 0-30.5-4 1.5" stroke="#00ffff" stroke-width="0.2" filter="url(#cyberpunkGlow)"/>
  <path d="M16 26c0 1.5 0 3 1 4.5M16 26c01.5 0 3-1 4.5" stroke="#ff00ff" stroke-width="0.2" filter="url(#cyberpunkGlow)"/>
  

  <path d="M11 24c-2-1-3.5-3-4-5" stroke="#00ffff" stroke-width="0.3" stroke-dasharray="0.5 0.5" filter="url(#energyPulse)"/>
  <path d="M21 24c2-1 3.5-3 4-5" stroke="#00ffff" stroke-width="0.3" stroke-dasharray="0.5 0.5" filter="url(#energyPulse)"/><!-- 额外装饰 -->
  <path d="M14 10c0 0 0.5-2 2-21.5 0 22 2 2" stroke="#ff00ff" stroke-width="0.4" fill="none" filter="url(#cyberpunkGlow)"/>
  <circle cx="16" cy="23" r="0.5" fill="#00ffff" filter="url(#cyberpunkGlow)"/>
  <circle cx="16" cy="23" r="1.5" fill="none" stroke="#00ffff" stroke-width="0.2" stroke-dasharray="0.5 0.3"/>
</svg>