<svg width="200" height="200" viewBox="0 0 200 200" xmlns="http://www.w3.org/2000/svg">
  <defs>
    <linearGradient id="apiGradient" x1="0%" y1="0%" x2="100%" y2="100%">
      <stop offset="0%" stop-color="#3B82F6" />
      <stop offset="100%" stop-color="#1D4ED8" />
    </linearGradient>
    <filter id="apiShadow" x="-20%" y="-20%" width="140%" height="140%">
      <feDropShadow dx="0" dy="4" stdDeviation="6" flood-color="#3B82F6" flood-opacity="0.3" />
    </filter>
    <clipPath id="apiClip">
      <path d="M100,20 L180,60 L180,140 L100,180 L20,140 L20,60 Z" />
    </clipPath>
  </defs>
  
  <!-- 六边形背景 -->
  <circle cx="100" cy="100" r="90" fill="#F1F5F9">
    <animate attributeName="r" values="90;93;90" dur="10s" repeatCount="indefinite" />
  </circle>
  
  <!-- 主容器 -->
  <path d="M100,20 L180,60 L180,140 L100,180 L20,140 L20,60 Z" fill="url(#apiGradient)" filter="url(#apiShadow)">
    <animate attributeName="d" values="M100,20 L180,60 L180,140 L100,180 L20,140 L20,60 Z;M100,22 L178,62 L178,138 L100,178 L22,138 L22,62 Z;M100,20 L180,60 L180,140 L100,180 L20,140 L20,60 Z" dur="8s" repeatCount="indefinite" />
  </path>
  
  <!-- API元素 -->
  <g clip-path="url(#apiClip)">
    <!-- 连接线 -->
    <g stroke="white" stroke-width="1" opacity="0.6">
      <line x1="40" y1="60" x2="160" y2="60">
        <animate attributeName="x2" values="160;150;160" dur="7s" repeatCount="indefinite" />
        <animate attributeName="opacity" values="0.6;0.8;0.6" dur="5s" repeatCount="indefinite" />
      </line>
      <line x1="40" y1="80" x2="120" y2="80">
        <animate attributeName="x2" values="120;130;120" dur="9s" repeatCount="indefinite" />
        <animate attributeName="opacity" values="0.6;0.9;0.6" dur="6s" repeatCount="indefinite" />
      </line>
      <line x1="40" y1="100" x2="140" y2="100">
        <animate attributeName="x2" values="140;145;140" dur="8s" repeatCount="indefinite" />
        <animate attributeName="opacity" values="0.6;0.7;0.6" dur="7s" repeatCount="indefinite" />
      </line>
      <line x1="40" y1="120" x2="100" y2="120">
        <animate attributeName="x2" values="100;110;100" dur="6s" repeatCount="indefinite" />
        <animate attributeName="opacity" values="0.6;0.8;0.6" dur="4s" repeatCount="indefinite" />
      </line>
      <line x1="40" y1="140" x2="130" y2="140">
        <animate attributeName="x2" values="130;125;130" dur="10s" repeatCount="indefinite" />
        <animate attributeName="opacity" values="0.6;0.9;0.6" dur="8s" repeatCount="indefinite" />
      </line>
    </g>
    
    <!-- 数据流动点 -->
    <g>
      <circle cx="0" cy="0" r="5" fill="white" opacity="0.8">
        <animate attributeName="cx" values="40;160;40" dur="5s" repeatCount="indefinite" />
        <animate attributeName="cy" values="60;60;60" dur="5s" repeatCount="indefinite" />
        <animate attributeName="r" values="5;6;5" dur="3s" repeatCount="indefinite" />
      </circle>
      
      <circle cx="0" cy="0" r="4" fill="white" opacity="0.7">
        <animate attributeName="cx" values="120;40;120" dur="7s" repeatCount="indefinite" />
        <animate attributeName="cy" values="80;80;80" dur="7s" repeatCount="indefinite" />
        <animate attributeName="r" values="4;5;4" dur="4s" repeatCount="indefinite" />
      </circle>
      
      <circle cx="0" cy="0" r="4.5" fill="white" opacity="0.9">
        <animate attributeName="cx" values="40;140;40" dur="6s" repeatCount="indefinite" />
        <animate attributeName="cy" values="100;100;100" dur="6s" repeatCount="indefinite" />
        <animate attributeName="r" values="4.5;5.5;4.5" dur="5s" repeatCount="indefinite" />
      </circle>
      
      <circle cx="0" cy="0" r="3.5" fill="white" opacity="0.6">
        <animate attributeName="cx" values="100;40;100" dur="8s" repeatCount="indefinite" />
        <animate attributeName="cy" values="120;120;120" dur="8s" repeatCount="indefinite" />
        <animate attributeName="r" values="3.5;4.5;3.5" dur="6s" repeatCount="indefinite" />
      </circle>
      
      <circle cx="0" cy="0" r="5" fill="white" opacity="0.8">
        <animate attributeName="cx" values="40;130;40" dur="9s" repeatCount="indefinite" />
        <animate attributeName="cy" values="140;140;140" dur="9s" repeatCount="indefinite" />
        <animate attributeName="r" values="5;6;5" dur="7s" repeatCount="indefinite" />
      </circle>
    </g>
    
    <!-- API端点指示器 -->
    <g>
      <rect x="30" y="55" width="20" height="10" rx="5" fill="#3B82F6" stroke="white" stroke-width="1">
        <animate attributeName="width" values="20;25;20" dur="7s" repeatCount="indefinite" />
      </rect>
      
      <rect x="30" y="75" width="20" height="10" rx="5" fill="#3B82F6" stroke="white" stroke-width="1">
        <animate attributeName="width" values="20;23;20" dur="8s" repeatCount="indefinite" />
      </rect>
      
      <rect x="30" y="95" width="20" height="10" rx="5" fill="#3B82F6" stroke="white" stroke-width="1">
        <animate attributeName="width" values="20;22;20" dur="9s" repeatCount="indefinite" />
      </rect>
      
      <rect x="30" y="115" width="20" height="10" rx="5" fill="#3B82F6" stroke="white" stroke-width="1">
        <animate attributeName="width" values="20;24;20" dur="7.5s" repeatCount="indefinite" />
      </rect>
      
      <rect x="30" y="135" width="20" height="10" rx="5" fill="#3B82F6" stroke="white" stroke-width="1">
        <animate attributeName="width" values="20;26;20" dur="8.5s" repeatCount="indefinite" />
      </rect>
    </g>
    
    <!-- 代码括号 -->
    <g fill="none" stroke="white" stroke-width="2">
      <path d="M150,40 L160,40 L160,65 L150,65" opacity="0.8">
        <animate attributeName="opacity" values="0.8;0.6;0.8" dur="5s" repeatCount="indefinite" />
        <animate attributeName="stroke-width" values="2;2.5;2" dur="4s" repeatCount="indefinite" />
      </path>
      
      <path d="M130,90 L140,90 L140,110 L130,110" opacity="0.7">
        <animate attributeName="opacity" values="0.7;0.5;0.7" dur="6s" repeatCount="indefinite" />
      </path>
      
      <path d="M110,130 L120,130 L120,150 L110,150" opacity="0.9">
        <animate attributeName="opacity" values="0.9;0.7;0.9" dur="7s" repeatCount="indefinite" />
      </path>
    </g>
    
    <!-- 数据处理元素 -->
    <g>
      <!-- 齿轮1 -->
      <circle cx="170" cy="50" r="15" fill="none" stroke="white" stroke-width="1.5" opacity="0.9">
        <animate attributeName="r" values="15;16;15" dur="5s" repeatCount="indefinite" />
      </circle>
      
      <path d="M170,35 L170,38 M177,37 L175,40 M183,43 L179,45 M185,50 L182,50 M183,57 L179,55 M177,63 L175,60 M170,65 L170,62 M163,63 L165,60 M157,57 L161,55 M155,50 L158,50 M157,43 L161,45 M163,37 L165,40" 
            stroke="white" stroke-width="1.5" opacity="0.9">
        <animateTransform attributeName="transform" type="rotate" from="0 170 50" to="360 170 50" dur="15s" repeatCount="indefinite" />
      </path>
      
      <!-- 齿轮2 -->
      <circle cx="140" cy="120" r="12" fill="none" stroke="white" stroke-width="1.5" opacity="0.8">
        <animate attributeName="r" values="12;13;12" dur="6s" repeatCount="indefinite" />
      </circle>
      
      <path d="M140,108 L140,110 M145,109 L144,111 M149,114 L147,115 M150,120 L148,120 M149,126 L147,125 M145,131 L144,129 M140,132 L140,130 M135,131 L136,129 M131,126 L133,125 M130,120 L132,120 M131,114 L133,115 M135,109 L136,111" 
            stroke="white" stroke-width="1.5" opacity="0.8">
        <animateTransform attributeName="transform" type="rotate" from="0 140 120" to="-360 140 120" dur="12s" repeatCount="indefinite" />
      </path>
    </g>
    
    <!-- 脉动背景 -->
    <circle cx="100" cy="100" r="50" fill="none" stroke="white" stroke-width="0.5" opacity="0.3">
      <animate attributeName="r" values="50;60;50" dur="8s" repeatCount="indefinite" />
      <animate attributeName="opacity" values="0.3;0.1;0.3" dur="8s" repeatCount="indefinite" />
    </circle>
    
    <circle cx="100" cy="100" r="70" fill="none" stroke="white" stroke-width="0.5" opacity="0.2">
      <animate attributeName="r" values="70;80;70" dur="10s" repeatCount="indefinite" />
      <animate attributeName="opacity" values="0.2;0.05;0.2" dur="10s" repeatCount="indefinite" />
    </circle>
    
    <!-- 动态节点 -->
    <circle cx="100" cy="100" r="8" fill="white" opacity="0.9">
      <animate attributeName="r" values="8;9;8" dur="3s" repeatCount="indefinite" />
      <animate attributeName="opacity" values="0.9;0.7;0.9" dur="4s" repeatCount="indefinite" />
    </circle>
    
    <!-- 连接线 -->
    <g stroke="white" stroke-width="0.75" opacity="0.7">
      <line x1="100" y1="100" x2="170" y2="50">
        <animate attributeName="opacity" values="0.7;0.9;0.7" dur="5s" repeatCount="indefinite" />
      </line>
      <line x1="100" y1="100" x2="140" y2="120">
        <animate attributeName="opacity" values="0.7;0.5;0.7" dur="6s" repeatCount="indefinite" />
      </line>
      <line x1="100" y1="100" x2="40" y2="60">
        <animate attributeName="opacity" values="0.7;0.4;0.7" dur="7s" repeatCount="indefinite" />
      </line>
      <line x1="100" y1="100" x2="40" y2="140">
        <animate attributeName="opacity" values="0.7;0.6;0.7" dur="8s" repeatCount="indefinite" />
      </line>
      <line x1="100" y1="100" x2="40" y2="100">
        <animate attributeName="opacity" values="0.7;0.8;0.7" dur="9s" repeatCount="indefinite" />
      </line>
    </g>
  </g>
</svg> 